<svg xmlns="http://www.w3.org/2000/svg" xmlns:xlink="http://www.w3.org/1999/xlink" width="73" height="73" viewBox="0 0 73 73"><defs><path id="r39na" d="M230 2424v-73h73v73zm3.35-36.56a33.12 33.12 0 1 0 66.25 0 33.12 33.12 0 0 0-66.25 0z"/><path id="r39nb" d="M266.47 2354.32a33.12 33.12 0 1 1 0 66.24 33.12 33.12 0 0 1 0-66.24z"/><path id="r39nd" d="M267.97 2368.77c5.15 0 9.33 3.66 9.33 8.17v9.33h1.17a3.5 3.5 0 0 1 3.5 3.5v12.83a3.5 3.5 0 0 1-3.5 3.5h-21a3.5 3.5 0 0 1-3.5-3.5v-12.83a3.5 3.5 0 0 1 3.5-3.5h1.17v-9.33c0-4.51 4.17-8.17 9.33-8.17zm-4.67 8.17v8.17c0 .4.1.8.27 1.16h8.8c.17-.36.26-.76.26-1.16v-8.17c0-1.93-2.08-3.5-4.66-3.5s-4.67 1.57-4.67 3.5zm2.33 23.33a2.33 2.33 0 1 0 4.67 0v-1.79a4.67 4.67 0 1 0-4.67 0z"/><clipPath id="r39nc"><use fill="#fff" xlink:href="#r39na"/></clipPath></defs><g><g transform="translate(-230 -2351)"><use fill="#fff" xlink:href="#r39nb"/><use fill="#fff" fill-opacity="0" stroke="#000" stroke-linecap="round" stroke-linejoin="round" stroke-miterlimit="50" stroke-width="6" clip-path="url(&quot;#r39nc&quot;)" xlink:href="#r39nb"/></g><g transform="translate(-230 -2351)"><use xlink:href="#r39nd"/></g></g></svg>