<svg xmlns="http://www.w3.org/2000/svg" xmlns:xlink="http://www.w3.org/1999/xlink" width="73" height="73" viewBox="0 0 73 73"><defs><path id="twoza" d="M230 2249v-74h73v74zm3.33-37a33.12 33.12 0 1 0 66.25 0 33.12 33.12 0 0 0-66.25 0z"/><path id="twozb" d="M266.45 2178.87a33.12 33.12 0 1 1 0 66.25 33.12 33.12 0 0 1 0-66.25z"/><path id="twozd" d="M247.17 2205.57c0-1.9 1.55-3.44 3.45-3.44h3.88c.06-.22.15-.44.27-.64l4.13-7.16a2.75 2.75 0 1 1 4.77 2.76l-2.91 5.04h11.38l-2.91-5.04a2.75 2.75 0 0 1 4.76-2.76l4.13 7.16c.12.2.21.42.28.64h3.88a3.44 3.44 0 1 1 0 6.88h-31.66a3.44 3.44 0 0 1-3.45-3.44zm34.53 25.47h-30.5l-1.2-20.65h32.89zm-16.63-13.77v8.26a1.38 1.38 0 0 0 2.75 0v-8.26a1.38 1.38 0 0 0-2.75 0zm8.26 0v8.26a1.38 1.38 0 0 0 2.75 0v-8.26a1.38 1.38 0 0 0-2.75 0zm-16.52 0v8.26a1.38 1.38 0 0 0 2.75 0v-8.26a1.38 1.38 0 0 0-2.75 0z"/><clipPath id="twozc"><use fill="#fff" xlink:href="#twoza"/></clipPath></defs><g><g transform="translate(-230 -2175)"><use fill="#fff" xlink:href="#twozb"/><use fill="#fff" fill-opacity="0" stroke="#000" stroke-linecap="round" stroke-linejoin="round" stroke-miterlimit="50" stroke-width="6" clip-path="url(&quot;#twozc&quot;)" xlink:href="#twozb"/></g><g transform="translate(-230 -2175)"><use xlink:href="#twozd"/></g></g></svg>