<svg xmlns="http://www.w3.org/2000/svg" xmlns:xlink="http://www.w3.org/1999/xlink" width="91" height="91" viewBox="0 0 91 91"><defs><path id="b1wqa" d="M986 2965v-91h91v91zm3.07-45.43a42.23 42.23 0 1 0 84.46 0 42.23 42.23 0 0 0-84.46 0z"/><path id="b1wqb" d="M1031.3 2877.34a42.23 42.23 0 1 1 0 84.46 42.23 42.23 0 0 1 0-84.46z"/><path id="b1wqd" d="M1046.25 2943.08c-.4 0-.82-.11-1.18-.35l-12.67-8.23-12.68 8.23a2.16 2.16 0 0 1-3.27-2.4l3.97-14.11-11.85-10.04a2.17 2.17 0 0 1 1.25-3.82l14.2-1.02 6.4-14.02a2.17 2.17 0 0 1 3.95 0l6.4 14.02 14.2 1.02a2.17 2.17 0 0 1 1.25 3.82l-11.85 10.04 3.97 14.1a2.17 2.17 0 0 1-2.09 2.76zm-13.85-13.33c.4 0 .82.11 1.17.35l9.04 5.86-2.8-9.9c-.22-.82.05-1.7.7-2.25l8.85-7.5-10.2-.74a2.16 2.16 0 0 1-1.8-1.26l-4.96-10.87-4.96 10.87a2.16 2.16 0 0 1-1.82 1.26l-10.2.74 8.87 7.5c.64.55.91 1.43.68 2.24l-2.79 9.91 9.04-5.86c.35-.24.76-.35 1.18-.35z"/><clipPath id="b1wqc"><use fill="#fff" xlink:href="#b1wqa"/></clipPath></defs><g><g transform="translate(-986 -2874)"><use fill="#f9f9f9" xlink:href="#b1wqb"/><use fill="#fff" fill-opacity="0" stroke="#777" stroke-linecap="round" stroke-linejoin="round" stroke-miterlimit="50" stroke-width="6" clip-path="url(&quot;#b1wqc&quot;)" xlink:href="#b1wqb"/></g><g transform="translate(-986 -2874)"><use fill="#777" xlink:href="#b1wqd"/></g></g></svg>