<svg xmlns="http://www.w3.org/2000/svg" xmlns:xlink="http://www.w3.org/1999/xlink" width="91" height="91" viewBox="0 0 91 91"><defs><path id="nyk6a" d="M654 2965v-91h91v91zm3.46-45.44a42.23 42.23 0 1 0 84.46 0 42.23 42.23 0 0 0-84.46 0z"/><path id="nyk6b" d="M699.7 2877.33a42.23 42.23 0 1 1 0 84.46 42.23 42.23 0 0 1 0-84.46z"/><path id="nyk6d" d="M716.72 2896.82v38.73a3.59 3.59 0 0 1-7.18 0v-38.73a3.59 3.59 0 0 1 7.18 0zm-13.45 12.78v25.95a3.59 3.59 0 0 1-7.18 0v-25.95a3.59 3.59 0 0 1 7.18 0zm-13.45 12.78v13.17a3.59 3.59 0 0 1-7.19 0v-13.17a3.59 3.59 0 0 1 7.19 0z"/><clipPath id="nyk6c"><use fill="#fff" xlink:href="#nyk6a"/></clipPath></defs><g><g transform="translate(-654 -2874)"><use fill="#f9f9f9" xlink:href="#nyk6b"/><use fill="#fff" fill-opacity="0" stroke="#777" stroke-linecap="round" stroke-linejoin="round" stroke-miterlimit="50" stroke-width="6" clip-path="url(&quot;#nyk6c&quot;)" xlink:href="#nyk6b"/></g><g transform="translate(-654 -2874)"><use fill="#777" xlink:href="#nyk6d"/></g></g></svg>